<svg width="102" height="80" fill="none" xmlns="http://www.w3.org/2000/svg"><rect opacity=".5" x=".949" y=".949" width="99.983" height="77.548" rx="3.798" stroke="#F0F0F0" stroke-width="1.899"/><path d="M62.33 39.724a4.555 4.555 0 0 1 4.555 4.555v13.666a4.555 4.555 0 0 1-4.556 4.555H39.552a4.555 4.555 0 0 1-4.555-4.555V44.279a4.555 4.555 0 0 1 4.555-4.556V28.336a11.388 11.388 0 1 1 22.777 0v11.389ZM50.94 55.666a4.555 4.555 0 1 0 0-9.11 4.555 4.555 0 0 0 0 9.11Zm6.834-15.944V28.336a6.833 6.833 0 1 0-13.666 0v11.389h13.666Z" fill="url(#a)"/><path opacity=".5" fill="#fff" d="M20.892 8.042h60.754v58.431H20.892z"/><defs><linearGradient id="a" x1="50.941" y1="16.947" x2="50.941" y2="62.5" gradientUnits="userSpaceOnUse"><stop stop-color="#FFD5B7"/><stop offset="1" stop-color="#FFAB6D"/></linearGradient></defs></svg>